<svg width="48" height="48" viewBox="0 0 48 48" fill="none" xmlns="http://www.w3.org/2000/svg">
<circle cx="24" cy="24" r="24" fill="#F0F5FF"/>
<path d="M16 23.4998V27.4998C16 28.3298 16.67 28.9998 17.5 28.9998C18.33 28.9998 19 28.3298 19 27.4998V23.4998C19 22.6698 18.33 21.9998 17.5 21.9998C16.67 21.9998 16 22.6698 16 23.4998ZM22 23.4998V27.4998C22 28.3298 22.67 28.9998 23.5 28.9998C24.33 28.9998 25 28.3298 25 27.4998V23.4998C25 22.6698 24.33 21.9998 23.5 21.9998C22.67 21.9998 22 22.6698 22 23.4998ZM15.5 33.9998H31.5C32.33 33.9998 33 33.3298 33 32.4998C33 31.6698 32.33 30.9998 31.5 30.9998H15.5C14.67 30.9998 14 31.6698 14 32.4998C14 33.3298 14.67 33.9998 15.5 33.9998ZM28 23.4998V27.4998C28 28.3298 28.67 28.9998 29.5 28.9998C30.33 28.9998 31 28.3298 31 27.4998V23.4998C31 22.6698 30.33 21.9998 29.5 21.9998C28.67 21.9998 28 22.6698 28 23.4998ZM22.57 13.4898L14.67 17.6498C14.26 17.8598 14 18.2898 14 18.7498C14 19.4398 14.56 19.9998 15.25 19.9998H31.76C32.44 19.9998 33 19.4398 33 18.7498C33 18.2898 32.74 17.8598 32.33 17.6498L24.43 13.4898C23.85 13.1798 23.15 13.1798 22.57 13.4898Z" fill="#286BF0"/>
</svg>
