<svg width="32" height="32" viewBox="0 0 32 32" fill="none" xmlns="http://www.w3.org/2000/svg">
<circle cx="16" cy="16" r="16" fill="#FFE6E6"/>
<path d="M22.3002 10.71C21.9102 10.32 21.2802 10.32 20.8902 10.71L16.0002 15.59L11.1102 10.7C10.7202 10.31 10.0902 10.31 9.70021 10.7C9.31021 11.09 9.31021 11.72 9.70021 12.11L14.5902 17L9.70021 21.89C9.31021 22.28 9.31021 22.91 9.70021 23.3C10.0902 23.69 10.7202 23.69 11.1102 23.3L16.0002 18.41L20.8902 23.3C21.2802 23.69 21.9102 23.69 22.3002 23.3C22.6902 22.91 22.6902 22.28 22.3002 21.89L17.4102 17L22.3002 12.11C22.6802 11.73 22.6802 11.09 22.3002 10.71Z" fill="#EE5253"/>
</svg>
