<svg width="73" height="74" viewBox="0 0 73 74" fill="none" xmlns="http://www.w3.org/2000/svg">
<path d="M27.1567 40.0528C27.1725 41.0675 26.9866 42.0753 26.6099 43.0173C26.2332 43.9594 25.6733 44.817 24.9627 45.5401C24.2521 46.2633 23.4051 46.8376 22.4709 47.2296C21.5366 47.6216 20.5339 47.8235 19.5211 47.8235C18.5083 47.8235 17.5056 47.6216 16.5714 47.2296C15.6372 46.8376 14.7901 46.2633 14.0795 45.5401C13.3689 44.817 12.809 43.9594 12.4323 43.0173C12.0557 42.0753 11.8698 41.0675 11.8855 40.0528C11.8855 35.8265 19.5607 25.4425 19.5607 25.4425C19.5607 25.4425 27.1567 35.8265 27.1567 40.0528Z" fill="#0C56E9"/>
<path d="M61.1215 40.0528C61.1215 42.0832 60.3166 44.0304 58.8837 45.4661C57.4509 46.9018 55.5076 47.7084 53.4813 47.7084C51.455 47.7084 49.5117 46.9018 48.0788 45.4661C46.646 44.0304 45.8411 42.0832 45.8411 40.0528C45.8411 35.8265 53.5181 25.4425 53.5181 25.4425C53.5181 25.4425 61.1215 35.8265 61.1215 40.0528Z" fill="#0C56E9"/>
<path d="M36.5352 10.6601C39.3151 14.6779 42.8425 20.5884 42.8425 23.0382C42.8425 24.7232 42.1745 26.3392 40.9854 27.5307C39.7964 28.7221 38.1836 29.3915 36.502 29.3915C34.8205 29.3915 33.2077 28.7221 32.0187 27.5307C30.8296 26.3392 30.1616 24.7232 30.1616 23.0382C30.1616 20.5921 33.7276 14.6798 36.5352 10.6601ZM36.5352 8.42798C36.5352 8.42798 28.86 18.812 28.86 23.0382C28.86 25.0686 29.6649 27.0159 31.0978 28.4516C32.5306 29.8873 34.4739 30.6939 36.5002 30.6939C38.5265 30.6939 40.4698 29.8873 41.9027 28.4516C43.3355 27.0159 44.1404 25.0686 44.1404 23.0382C44.1404 18.812 36.5426 8.42798 36.5426 8.42798H36.5352Z" fill="#0C56E9"/>
<path d="M44.1387 57.0663C44.1387 58.0716 43.9411 59.0671 43.5571 59.996C43.1732 60.9248 42.6104 61.7687 41.9009 62.4796C41.1915 63.1905 40.3492 63.7544 39.4223 64.1392C38.4953 64.5239 37.5018 64.7219 36.4985 64.7219C35.4952 64.7219 34.5017 64.5239 33.5747 64.1392C32.6478 63.7544 31.8055 63.1905 31.096 62.4796C30.3866 61.7687 29.8238 60.9248 29.4399 59.996C29.0559 59.0671 28.8583 58.0716 28.8583 57.0663C28.8583 52.8418 36.5335 42.4579 36.5335 42.4579C36.5335 42.4579 44.1387 52.8418 44.1387 57.0663Z" fill="#0C56E9"/>
<path d="M36.5 4.11375C42.9059 4.11672 49.1671 6.02224 54.4926 9.58953C59.8181 13.1568 63.9688 18.2258 66.4203 24.1559C68.8718 30.0861 69.514 36.6113 68.2659 42.9071C67.0177 49.2028 63.9352 54.9866 59.4078 59.5276C56.4224 62.6433 52.8466 65.1309 48.8898 66.8446C44.933 68.5582 40.6747 69.4635 36.3643 69.5075C32.0539 69.5515 27.7781 68.7332 23.7873 67.1006C19.7965 65.468 16.1709 63.054 13.1229 59.9998C10.0748 56.9456 7.6656 53.3126 6.0363 49.3138C4.407 45.3149 3.59037 41.0305 3.63425 36.7114C3.67814 32.3924 4.58164 28.1255 6.29185 24.1607C8.00206 20.1959 10.4846 16.6129 13.5941 13.6215C16.5949 10.5976 20.1646 8.20024 24.0964 6.56822C28.0283 4.9362 32.2442 4.10194 36.5 4.11375ZM36.5 0C16.3427 0 0 16.3738 0 36.5736C0 56.7734 16.3427 73.1472 36.5 73.1472C56.6573 73.1472 73 56.7734 73 36.5736C73 16.3738 56.6591 0 36.5 0Z" fill="#0C56E9"/>
</svg>
