<svg width="238" height="47" viewBox="0 0 238 47" fill="none" xmlns="http://www.w3.org/2000/svg">
<path d="M16.9413 25.8472C16.9511 26.4802 16.8351 27.1089 16.6001 27.6966C16.3652 28.2843 16.0159 28.8192 15.5726 29.2704C15.1293 29.7215 14.6009 30.0798 14.0181 30.3243C13.4353 30.5689 12.8098 30.6948 12.1779 30.6948C11.5461 30.6948 10.9206 30.5689 10.3378 30.3243C9.75503 30.0798 9.22661 29.7215 8.78332 29.2704C8.34004 28.8192 7.99074 28.2843 7.75576 27.6966C7.52079 27.1089 7.40483 26.4802 7.41464 25.8472C7.41464 23.2107 12.2026 16.7329 12.2026 16.7329C12.2026 16.7329 16.9413 23.2107 16.9413 25.8472Z" fill="#0C56E9"/>
<path d="M38.13 25.8472C38.13 27.1138 37.6279 28.3286 36.734 29.2242C35.8402 30.1198 34.6279 30.623 33.3638 30.623C32.0998 30.623 30.8875 30.1198 29.9936 29.2242C29.0998 28.3286 28.5977 27.1138 28.5977 25.8472C28.5977 23.2107 33.3868 16.7329 33.3868 16.7329C33.3868 16.7329 38.13 23.2107 38.13 25.8472Z" fill="#0C56E9"/>
<path d="M22.7919 7.51124C24.5261 10.0177 26.7266 13.7048 26.7266 15.2331C26.7266 16.2842 26.3099 17.2923 25.5681 18.0356C24.8263 18.7788 23.8203 19.1964 22.7712 19.1964C21.7222 19.1964 20.7162 18.7788 19.9744 18.0356C19.2326 17.2923 18.8159 16.2842 18.8159 15.2331C18.8159 13.7071 21.0405 10.0188 22.7919 7.51124ZM22.7919 6.11877C22.7919 6.11877 18.0039 12.5966 18.0039 15.2331C18.0039 16.4997 18.5061 17.7144 19.3999 18.6101C20.2937 19.5057 21.506 20.0089 22.7701 20.0089C24.0342 20.0089 25.2465 19.5057 26.1403 18.6101C27.0341 17.7144 27.5363 16.4997 27.5363 15.2331C27.5363 12.5966 22.7965 6.11877 22.7965 6.11877H22.7919Z" fill="#0C56E9"/>
<path d="M27.5343 36.4607C27.5343 37.0878 27.411 37.7089 27.1715 38.2883C26.932 38.8677 26.5809 39.3942 26.1383 39.8377C25.6958 40.2811 25.1703 40.6329 24.5921 40.8729C24.0138 41.1129 23.394 41.2365 22.7681 41.2365C22.1422 41.2365 21.5225 41.1129 20.9442 40.8729C20.3659 40.6329 19.8405 40.2811 19.3979 39.8377C18.9554 39.3942 18.6043 38.8677 18.3648 38.2883C18.1252 37.7089 18.002 37.0878 18.002 36.4607C18.002 33.8254 22.79 27.3475 22.79 27.3475C22.79 27.3475 27.5343 33.8254 27.5343 36.4607Z" fill="#0C56E9"/>
<path d="M22.7697 3.42748C26.7659 3.42933 30.6718 4.61805 33.994 6.84342C37.3162 9.0688 39.9055 12.231 41.4348 15.9304C42.9641 19.6298 43.3648 23.7004 42.5862 27.6278C41.8075 31.5553 39.8846 35.1634 37.0602 37.9962C35.1979 39.9399 32.9672 41.4917 30.4988 42.5607C28.0304 43.6297 25.374 44.1945 22.6851 44.2219C19.9961 44.2494 17.3288 43.7389 14.8392 42.7204C12.3496 41.702 10.0879 40.196 8.18641 38.2907C6.28496 36.3854 4.78201 34.1191 3.76561 31.6245C2.74921 29.1299 2.23977 26.4572 2.26715 23.7628C2.29452 21.0685 2.85815 18.4067 3.92503 15.9333C4.99191 13.46 6.54058 11.2248 8.48036 9.35867C10.3524 7.47228 12.5792 5.97674 15.032 4.95864C17.4848 3.94054 20.1148 3.42011 22.7697 3.42748ZM22.7697 0.861206C10.195 0.861206 0 11.0757 0 23.6769C0 36.2781 10.195 46.4925 22.7697 46.4925C35.3444 46.4925 45.5394 36.2781 45.5394 23.6769C45.5394 11.0757 35.3456 0.861206 22.7697 0.861206Z" fill="#0C56E9"/>
<path d="M54.21 12.6455H57.8882L61.6397 28.503H61.6963L65.8709 12.6455H69.5758L73.6222 28.503H73.6788L77.5436 12.6455H81.2218L75.5046 33.3772H71.828L67.6967 17.5196H67.6251L63.3938 33.3772H59.6573L54.21 12.6455Z" fill="#0C56E9"/>
<path d="M94.1583 30.0369C94.1394 30.8159 94.3926 31.1948 94.9179 31.1737C95.1808 31.1686 95.4433 31.1497 95.7042 31.1169V33.4021C95.0568 33.6397 94.3745 33.7683 93.6852 33.7827C93.1209 33.8034 92.5626 33.6602 92.0776 33.3704C91.6456 33.0788 91.3569 32.6064 91.2114 31.9532C90.5542 32.5773 89.7633 33.0426 88.8992 33.3136C88.0196 33.6181 87.0962 33.7766 86.1655 33.7827C84.9222 33.808 83.7057 33.4187 82.7072 32.676C81.7177 31.9393 81.2141 30.8448 81.1963 29.3926C81.1963 28.4478 81.3629 27.68 81.696 27.0841C81.997 26.5245 82.4497 26.0615 83.0021 25.7487C83.5715 25.4357 84.1768 25.193 84.8045 25.026C85.4648 24.8931 86.1323 24.7989 86.8035 24.7439C87.4099 24.622 87.9697 24.5235 88.4961 24.4484C88.9589 24.4016 89.4184 24.3263 89.8721 24.2231C90.715 24.0461 91.1459 23.517 91.1648 22.6356C91.147 21.7944 90.8138 21.238 90.1652 20.9664C89.5271 20.7252 88.8479 20.6117 88.1662 20.6326C87.25 20.6326 86.522 20.8156 85.9823 21.1818C85.3959 21.5846 85.0572 22.1888 84.9661 22.9945H81.751C81.8332 22.0063 82.0703 21.1873 82.4623 20.5374C82.8332 19.9223 83.3477 19.4067 83.9616 19.0351C85.2299 18.3497 86.6903 18.0158 88.3428 18.0336C89.7259 18.0059 91.0932 18.3316 92.3159 18.9801C93.4942 19.6578 94.105 20.7878 94.1483 22.3702L94.1583 30.0369ZM90.9632 25.8539C90.4137 26.16 89.811 26.3583 89.1874 26.4381C88.4711 26.5316 87.7453 26.6356 87.0101 26.7503C86.3651 26.8291 85.7473 27.0577 85.206 27.4179C84.6652 27.7885 84.3947 28.4006 84.3947 29.2541C84.4131 29.9752 84.7695 30.4726 85.4692 30.748C86.0543 31.0403 86.7013 31.1863 87.3549 31.1737C87.7554 31.1713 88.1538 31.1152 88.5394 31.0068C88.9443 30.888 89.3331 30.7198 89.6971 30.506C90.0654 30.2842 90.3841 29.9887 90.6333 29.638C90.8662 29.2424 90.9818 28.7884 90.9665 28.3293L90.9632 25.8539Z" fill="#0C56E9"/>
<path d="M96.6602 18.354H99.0856V13.8588H102.282V18.354H105.173V20.8244H102.282V28.8533C102.264 29.521 102.346 30.0318 102.529 30.3857C102.721 30.7345 103.155 30.9098 103.83 30.9098C104.281 30.9293 104.732 30.8911 105.173 30.7963V33.3435C104.483 33.4372 103.789 33.493 103.094 33.5104C101.49 33.4926 100.419 33.1666 99.8802 32.5323C99.3416 31.898 99.0768 30.9476 99.0856 29.6812V20.8244H96.6602V18.354Z" fill="#0C56E9"/>
<path d="M110.264 26.7185C110.264 27.9237 110.584 28.9536 111.224 29.8083C111.872 30.6985 112.855 31.1542 114.171 31.1753C115.997 31.1753 117.176 30.3407 117.707 28.6715H120.736C120.361 30.2951 119.584 31.5509 118.404 32.4389C117.205 33.3169 115.793 33.7654 114.167 33.7843C111.883 33.7465 110.133 33.002 108.918 31.5509C107.684 30.1187 107.067 28.2398 107.067 25.914C107.067 23.7084 107.703 21.8528 108.973 20.3472C110.206 18.8304 111.91 18.0514 114.086 18.0103C116.425 18.047 118.211 18.9294 119.445 20.6576C120.687 22.3491 121.181 24.3683 120.926 26.7152L110.264 26.7185ZM117.732 24.5386C117.7 23.5334 117.333 22.568 116.689 21.796C116.05 21.0315 115.181 20.642 114.084 20.6276C112.979 20.6454 112.08 21.0187 111.387 21.7476C110.713 22.4743 110.339 23.4068 110.264 24.5452L117.732 24.5386Z" fill="#0C56E9"/>
<path d="M123.896 18.3541H126.894V21.2452H126.949C127.177 20.4139 127.693 19.665 128.498 18.9984C129.255 18.3712 130.205 18.0235 131.187 18.0136C131.59 18.0128 131.994 18.0412 132.393 18.0987V21.2702L131.727 21.1567C131.508 21.1383 131.275 21.1283 131.029 21.1283C130.496 21.1179 129.969 21.2296 129.486 21.455C129.004 21.6804 128.579 22.0134 128.245 22.4286C127.495 23.3189 127.111 24.5908 127.092 26.2445V33.367H123.896V18.3541Z" fill="#0C56E9"/>
<path d="M141.418 13.0952H145.145L152.861 33.8269H149.106L147.229 28.3385H139.224L137.347 33.8269H133.729L141.418 13.0952ZM140.184 25.5859H146.297L143.299 16.664H143.216L140.184 25.5859Z" fill="#0C56E9"/>
<path d="M155.028 13.0952H158.223V33.8269H155.028V13.0952Z" fill="#0C56E9"/>
<path d="M162.02 13.0952H165.215V33.8269H162.02V13.0952Z" fill="#0C56E9"/>
<path d="M169.013 13.0952H172.208V16.2133H169.013V13.0952ZM169.013 18.8089H172.208V33.8319H169.013V18.8089Z" fill="#0C56E9"/>
<path d="M188.071 30.4917C188.053 31.2706 188.306 31.6501 188.83 31.6301C189.093 31.625 189.356 31.6061 189.617 31.5733V33.8568C188.969 34.0952 188.287 34.2238 187.598 34.2374C187.034 34.2579 186.476 34.1153 185.99 33.8268C185.559 33.5352 185.271 33.0623 185.124 32.4079C184.468 33.0307 183.679 33.4949 182.817 33.765C181.936 34.0691 181.012 34.227 180.081 34.2324C178.837 34.2617 177.618 33.8753 176.616 33.134C175.627 32.3974 175.123 31.3024 175.105 29.849C175.105 28.9054 175.272 28.1364 175.605 27.5422C175.904 26.9787 176.357 26.5121 176.911 26.1968C177.48 25.8836 178.086 25.6414 178.714 25.4757C179.374 25.3423 180.041 25.2476 180.713 25.1919C181.319 25.0701 181.879 24.9716 182.405 24.8965C182.868 24.851 183.328 24.7763 183.781 24.6728C184.624 24.4936 185.055 23.9645 185.074 23.0854C185.056 22.243 184.723 21.6866 184.074 21.4161C183.436 21.1749 182.757 21.0615 182.075 21.0823C181.159 21.0823 180.431 21.2648 179.891 21.6298C179.305 22.0338 178.966 22.6386 178.875 23.4442H175.664C175.746 22.4561 175.983 21.637 176.375 20.9872C176.745 20.3692 177.26 19.8508 177.874 19.4765C179.143 18.7888 180.604 18.455 182.257 18.475C183.641 18.4418 185.011 18.7635 186.237 19.4098C187.415 20.0875 188.026 21.2175 188.069 22.7999L188.071 30.4917ZM184.876 26.3103C184.326 26.6156 183.723 26.8133 183.1 26.8928C182.384 26.9874 181.658 27.092 180.923 27.2067C180.277 27.2847 179.659 27.5134 179.119 27.8743C178.578 28.2449 178.307 28.8569 178.307 29.7105C178.326 30.4299 178.682 30.929 179.38 31.2028C179.966 31.4954 180.613 31.642 181.267 31.6301C181.668 31.6278 182.066 31.5716 182.452 31.4631C182.86 31.3449 183.251 31.1767 183.618 30.9624C183.984 30.7398 184.3 30.4437 184.546 30.0927C184.779 29.697 184.894 29.2431 184.879 28.7841L184.876 26.3103Z" fill="#0C56E9"/>
<path d="M192.037 18.8091H195.066V21.0792L195.121 21.1377C196.153 19.3983 197.662 18.5081 199.645 18.4669C202.99 18.4869 204.704 20.1823 204.786 23.553V33.8254H201.589V24.4177C201.552 22.1676 200.605 21.052 198.747 21.0709C197.668 21.0898 196.826 21.4665 196.222 22.201C195.554 22.9752 195.201 23.9725 195.232 24.9952V33.8204H192.037V18.8091Z" fill="#0C56E9"/>
<path d="M218.456 23.8886C218.123 22.0346 217.017 21.0976 215.138 21.0776C214.704 21.0827 214.272 21.1387 213.852 21.2445C213.364 21.412 212.923 21.6928 212.564 22.0641C212.117 22.5294 211.78 23.0897 211.578 23.7033C211.295 24.4188 211.153 25.3558 211.153 26.5142C211.134 27.7337 211.448 28.9352 212.059 29.9896C212.652 31.0645 213.634 31.6109 215.005 31.6287C216.934 31.5909 218.085 30.4558 218.46 28.2235H221.651C221.012 32.1951 218.795 34.1982 215.003 34.2327C212.72 34.196 210.988 33.4521 209.809 32.001C208.574 30.5688 207.957 28.7365 207.958 26.5042C207.958 24.1874 208.569 22.275 209.79 20.7671C210.968 19.2515 212.745 18.4837 215.121 18.4636C216.858 18.4636 218.334 18.8976 219.549 19.7656C220.771 20.6559 221.474 22.0285 221.66 23.8836L218.456 23.8886Z" fill="#0C56E9"/>
<path d="M227.273 27.1753C227.273 28.3804 227.593 29.4098 228.232 30.2633C228.88 31.1535 229.862 31.6092 231.179 31.6304C233.005 31.6304 234.183 30.7958 234.714 29.1266H237.743C237.369 30.7513 236.591 32.0071 235.411 32.894C234.215 33.772 232.803 34.2204 231.176 34.2394C228.897 34.2015 227.147 33.4571 225.925 32.006C224.693 30.5738 224.076 28.6942 224.076 26.3674C224.076 24.164 224.711 22.3084 225.98 20.8005C227.214 19.2849 228.918 18.5059 231.093 18.4636C233.434 18.5015 235.221 19.3845 236.453 21.1127C237.695 22.803 238.189 24.8222 237.934 27.1702L227.273 27.1753ZM234.739 24.9936C234.708 23.989 234.341 23.024 233.698 22.2527C233.058 21.4882 232.19 21.0988 231.093 21.0843C229.989 21.1032 229.09 21.476 228.396 22.2027C227.719 22.9304 227.345 23.863 227.273 25.0003L234.739 24.9936Z" fill="#0C56E9"/>
</svg>
