<svg width="164" height="20" viewBox="0 0 164 20" fill="none" xmlns="http://www.w3.org/2000/svg">
<path d="M0.287781 0.49707H3.56416L6.90584 14.6223H6.95629L10.6749 0.49707H13.975L17.5793 14.6223H17.6298L21.0723 0.49707H24.3487L19.2561 18.9639H15.9812L12.3012 4.83871H12.2374L8.46836 18.9639H5.14003L0.287781 0.49707Z" fill="#0C56E9"/>
<path d="M35.8724 15.9885C35.8556 16.6824 36.0811 17.0199 36.5491 17.0011C36.7832 16.9966 37.017 16.9797 37.2494 16.9505V18.9861C36.6727 19.1977 36.065 19.3122 35.451 19.3251C34.9483 19.3435 34.451 19.216 34.0191 18.9578C33.6342 18.6981 33.377 18.2773 33.2474 17.6955C32.662 18.2513 31.9575 18.6658 31.1878 18.9072C30.4043 19.1785 29.5818 19.3196 28.7528 19.3251C27.6453 19.3476 26.5617 19.0009 25.6723 18.3393C24.7909 17.6831 24.3422 16.7082 24.3264 15.4146C24.3264 14.573 24.4748 13.8891 24.7716 13.3583C25.0396 12.8598 25.4429 12.4474 25.9349 12.1688C26.4422 11.8899 26.9813 11.6738 27.5405 11.525C28.1287 11.4067 28.7232 11.3228 29.3211 11.2737C29.8612 11.1652 30.3598 11.0774 30.8287 11.0105C31.241 10.9688 31.6503 10.9018 32.0544 10.8098C32.8053 10.6522 33.1891 10.1808 33.2059 9.39578C33.1901 8.6464 32.8933 8.15078 32.3156 7.90892C31.7472 7.69402 31.1422 7.59298 30.5349 7.61155C29.7188 7.61155 29.0703 7.77461 28.5896 8.10072C28.0672 8.45955 27.7655 8.9978 27.6844 9.71546H24.8205C24.8938 8.83523 25.1049 8.10568 25.4542 7.5268C25.7845 6.97887 26.2428 6.51963 26.7896 6.18862C27.9194 5.57801 29.2202 5.28064 30.6922 5.2965C31.9242 5.27179 33.1422 5.56193 34.2312 6.13955C35.2808 6.74322 35.8249 7.74983 35.8635 9.15937L35.8724 15.9885ZM33.0263 12.2625C32.5369 12.5351 32 12.7118 31.4445 12.7829C30.8065 12.8661 30.16 12.9588 29.5051 13.0609C28.9305 13.1311 28.3803 13.3348 27.8981 13.6556C27.4163 13.9857 27.1754 14.5309 27.1754 15.2912C27.1918 15.9335 27.5093 16.3766 28.1325 16.6219C28.6537 16.8823 29.23 17.0124 29.8123 17.0011C30.169 16.999 30.5238 16.949 30.8673 16.8524C31.228 16.7466 31.5744 16.5968 31.8986 16.4063C32.2266 16.2088 32.5105 15.9456 32.7325 15.6332C32.94 15.2808 33.0429 14.8764 33.0293 14.4675L33.0263 12.2625Z" fill="#0C56E9"/>
<path d="M38.1012 5.58213H40.2617V1.578H43.1093V5.58213H45.6838V7.78268H43.1093V14.9345C43.0924 15.5292 43.1656 15.9842 43.3289 16.2994C43.4995 16.6102 43.8868 16.7663 44.4878 16.7663C44.8891 16.7837 45.291 16.7497 45.6838 16.6652V18.9342C45.0697 19.0177 44.4514 19.0673 43.8319 19.0828C42.4034 19.067 41.4493 18.7766 40.9695 18.2115C40.4897 17.6465 40.2538 16.8 40.2617 15.672V7.78268H38.1012V5.58213Z" fill="#0C56E9"/>
<path d="M50.2185 13.0327C50.2185 14.1062 50.5034 15.0236 51.0732 15.7849C51.6509 16.5779 52.5259 16.9838 53.6981 17.0026C55.3255 17.0026 56.3755 16.2592 56.8484 14.7724H59.5461C59.2127 16.2186 58.5202 17.3372 57.4687 18.1282C56.4013 18.9103 55.1434 19.3098 53.6952 19.3266C51.6603 19.2929 50.1017 18.6298 49.0195 17.3372C47.9204 16.0615 47.3709 14.3877 47.3709 12.3161C47.3709 10.3514 47.9368 8.69852 49.0685 7.35737C50.1665 6.0063 51.6845 5.31243 53.6225 5.27576C55.7058 5.30847 57.297 6.09452 58.3961 7.63392C59.5031 9.14061 59.9428 10.9392 59.7153 13.0297L50.2185 13.0327ZM56.8707 11.0909C56.8417 10.1955 56.5147 9.33561 55.9418 8.64796C55.372 7.96698 54.5984 7.62004 53.621 7.60716C52.6367 7.62302 51.8359 7.95558 51.2186 8.60484C50.6181 9.25212 50.2847 10.0828 50.2185 11.0968L56.8707 11.0909Z" fill="#0C56E9"/>
<path d="M62.361 5.58202H65.032V8.15727H65.081C65.2837 7.41681 65.7438 6.7497 66.461 6.15595C67.1354 5.59726 67.9809 5.28757 68.8559 5.2787C69.2154 5.27799 69.5744 5.30333 69.9302 5.35453V8.17957L69.3367 8.07847C69.1423 8.06211 68.9346 8.05319 68.715 8.05319C68.2409 8.04387 67.7709 8.1434 67.3411 8.34417C66.9113 8.54494 66.5331 8.84161 66.2354 9.21146C65.5677 10.0044 65.2254 11.1374 65.2086 12.6104V18.9549H62.361V5.58202Z" fill="#0C56E9"/>
<path d="M77.9697 0.897705H81.2891L88.1624 19.3645H84.8178L83.1455 14.4757H76.0155L74.3431 19.3645H71.1202L77.9697 0.897705ZM76.8702 12.0239H82.316L79.645 4.07662H79.5708L76.8702 12.0239Z" fill="#0C56E9"/>
<path d="M90.093 0.897705H92.939V19.3645H90.093V0.897705Z" fill="#0C56E9"/>
<path d="M96.3209 0.897705H99.1669V19.3645H96.3209V0.897705Z" fill="#0C56E9"/>
<path d="M102.549 0.897705H105.395V3.67517H102.549V0.897705ZM102.549 5.98724H105.395V19.369H102.549V5.98724Z" fill="#0C56E9"/>
<path d="M119.526 16.3939C119.51 17.0877 119.735 17.4258 120.202 17.4079C120.436 17.4034 120.67 17.3865 120.903 17.3574V19.3914C120.326 19.6037 119.718 19.7183 119.104 19.7304C118.602 19.7486 118.105 19.6217 117.672 19.3646C117.288 19.1049 117.031 18.6836 116.901 18.1008C116.316 18.6555 115.613 19.069 114.845 19.3096C114.061 19.5805 113.238 19.7211 112.409 19.7259C111.3 19.7521 110.214 19.4079 109.322 18.7476C108.441 18.0914 107.992 17.116 107.977 15.8214C107.977 14.9809 108.125 14.2959 108.422 13.7666C108.688 13.2646 109.092 12.849 109.585 12.5682C110.092 12.2892 110.631 12.0735 111.191 11.9259C111.779 11.807 112.373 11.7226 112.971 11.6731C113.511 11.5645 114.01 11.4768 114.479 11.4099C114.891 11.3694 115.301 11.3028 115.705 11.2107C116.455 11.0511 116.839 10.5797 116.856 9.79666C116.84 9.04629 116.543 8.55067 115.966 8.3098C115.397 8.0949 114.792 7.99386 114.185 8.01242C113.369 8.01242 112.72 8.17499 112.24 8.50012C111.717 8.85994 111.416 9.39868 111.335 10.1163H108.474C108.547 9.23612 108.758 8.50656 109.107 7.92768C109.437 7.37726 109.895 6.91545 110.443 6.58206C111.573 5.96948 112.875 5.6721 114.347 5.68995C115.58 5.66036 116.8 5.94697 117.892 6.52259C118.941 7.12626 119.485 8.13286 119.524 9.54241L119.526 16.3939ZM116.679 12.6693C116.19 12.9412 115.653 13.1173 115.098 13.1882C114.46 13.2725 113.813 13.3656 113.158 13.4677C112.583 13.5372 112.033 13.741 111.551 14.0625C111.069 14.3926 110.829 14.9377 110.829 15.698C110.845 16.3389 111.162 16.7834 111.784 17.0273C112.306 17.288 112.883 17.4186 113.465 17.4079C113.822 17.4059 114.177 17.3558 114.52 17.2592C114.884 17.1539 115.233 17.0041 115.559 16.8132C115.885 16.6149 116.166 16.3511 116.386 16.0385C116.593 15.686 116.696 15.2817 116.682 14.8728L116.679 12.6693Z" fill="#0C56E9"/>
<path d="M123.059 5.98742H125.756V8.00956L125.805 8.0616C126.725 6.51229 128.069 5.71929 129.835 5.68262C132.815 5.70046 134.341 7.21062 134.415 10.2131V19.3632H131.567V10.9833C131.534 8.97899 130.691 7.98527 129.036 8.00213C128.074 8.01898 127.324 8.35451 126.786 9.00873C126.191 9.69842 125.877 10.5867 125.905 11.4977V19.3588H123.059V5.98742Z" fill="#0C56E9"/>
<path d="M146.591 10.5121C146.295 8.86071 145.309 8.02608 143.635 8.00824C143.249 8.01275 142.865 8.06266 142.49 8.15692C142.055 8.30605 141.662 8.55624 141.343 8.88697C140.944 9.30146 140.644 9.80049 140.464 10.3471C140.212 10.9844 140.086 11.8191 140.086 12.851C140.069 13.9372 140.348 15.0075 140.893 15.9466C141.422 16.9041 142.296 17.3908 143.517 17.4067C145.235 17.373 146.261 16.3619 146.594 14.3735H149.437C148.868 17.9112 146.894 19.6955 143.515 19.7262C141.481 19.6935 139.939 19.0309 138.889 17.7383C137.789 16.4625 137.239 14.8305 137.24 12.842C137.24 10.7783 137.784 9.07482 138.872 7.73168C139.921 6.38161 141.504 5.69765 143.621 5.67981C145.168 5.67981 146.483 6.0664 147.565 6.83957C148.653 7.63256 149.28 8.85525 149.445 10.5077L146.591 10.5121Z" fill="#0C56E9"/>
<path d="M154.445 13.4397C154.445 14.5133 154.73 15.4302 155.3 16.1904C155.877 16.9834 156.752 17.3893 157.925 17.4082C159.551 17.4082 160.601 16.6648 161.074 15.1779H163.772C163.438 16.6251 162.746 17.7437 161.694 18.5337C160.629 19.3158 159.371 19.7153 157.922 19.7322C155.892 19.6984 154.333 19.0353 153.245 17.7427C152.147 16.467 151.598 14.7928 151.598 12.7201C151.598 10.7574 152.163 9.10455 153.294 7.76142C154.393 6.41135 155.911 5.71748 157.848 5.67981C159.933 5.71351 161.525 6.50007 162.623 8.03946C163.729 9.54516 164.169 11.3438 163.942 13.4353L154.445 13.4397ZM161.096 11.4964C161.068 10.6016 160.742 9.74203 160.169 9.05499C159.599 8.37401 158.825 8.02707 157.848 8.01419C156.865 8.03104 156.064 8.3631 155.446 9.01039C154.843 9.65866 154.51 10.4893 154.445 11.5024L161.096 11.4964Z" fill="#0C56E9"/>
</svg>
