<svg width="32" height="32" viewBox="0 0 32 32" fill="none" xmlns="http://www.w3.org/2000/svg">
<path fill-rule="evenodd" clip-rule="evenodd" d="M2.5 29.5V2.5H29.5V29.5H2.5ZM0 2C0 0.895431 0.895431 0 2 0H30C31.1046 0 32 0.895431 32 2V30C32 31.1046 31.1046 32 30 32H2C0.895431 32 0 31.1046 0 30V2ZM28.0145 10.3575C28.4881 10.0733 28.6416 9.45908 28.3575 8.9855C28.0733 8.51192 27.4591 8.35836 26.9855 8.64251L21.9855 11.6425C21.7878 11.7611 21.6372 11.9444 21.5591 12.1613L17.9755 22.1158L13.435 10.1453C13.2883 9.75867 12.9188 9.50217 12.5052 9.50001C12.0917 9.49785 11.7195 9.75048 11.5688 10.1356L7.74889 19.8975L5.31923 16.4265C5.00252 15.9741 4.37899 15.8641 3.92654 16.1808C3.47409 16.4975 3.36405 17.121 3.68077 17.5735L7.18077 22.5735C7.39216 22.8755 7.75256 23.0367 8.11859 22.9929C8.48462 22.9492 8.79691 22.7077 8.93124 22.3644L12.4855 13.2814L17.065 25.3547C17.2135 25.746 17.5899 26.0035 18.0085 26C18.4271 25.9964 18.7991 25.7325 18.9409 25.3387L23.3202 13.1741L28.0145 10.3575Z" fill="#94A3B3"/>
</svg>
