<svg width="32" height="32" viewBox="0 0 32 32" fill="none" xmlns="http://www.w3.org/2000/svg">
<g clip-path="url(#clip0)">
<path d="M27.4287 10.6666H21.7144C21.0832 10.6666 20.5715 11.1783 20.5715 11.8095C20.5715 12.4407 21.0832 12.9524 21.7144 12.9524H27.4287C28.0599 12.9524 28.5716 13.4641 28.5716 14.0953V28.9524C28.5716 29.5836 28.0599 30.0953 27.4287 30.0953H4.57157C3.94037 30.0953 3.4287 29.5836 3.4287 28.9524V14.0952C3.4287 13.464 3.94037 12.9523 4.57157 12.9523H10.2858C10.917 12.9523 11.4287 12.4406 11.4287 11.8094C11.4287 11.1782 10.917 10.6666 10.2858 10.6666H4.57157C2.67803 10.6666 1.14301 12.2016 1.14301 14.0952V28.9523C1.14301 30.8459 2.67803 32.3809 4.57157 32.3809H27.4287C29.3222 32.3809 30.8572 30.8459 30.8572 28.9523V14.0952C30.8572 12.2016 29.3222 10.6666 27.4287 10.6666Z" fill="#94A3B3"/>
<path d="M22.4962 16.3349C22.0533 15.9072 21.3512 15.9072 20.9084 16.3349L17.1426 20.0982V1.14288C17.1426 0.511674 16.631 0 15.9997 0C15.3685 0 14.8569 0.511674 14.8569 1.14288V20.0983L11.0934 16.3349C10.6394 15.8964 9.91592 15.9089 9.47744 16.3629C9.04967 16.8058 9.04967 17.508 9.47744 17.9508L15.1917 23.6651C15.6375 24.1119 16.3611 24.1129 16.8079 23.6671C16.8086 23.6664 16.8093 23.6658 16.81 23.6651L22.5243 17.9508C22.9628 17.4968 22.9502 16.7733 22.4962 16.3349Z" fill="#94A3B3"/>
</g>
<defs>
<clipPath id="clip0">
<rect width="32" height="32" fill="white"/>
</clipPath>
</defs>
</svg>
