<svg width="32" height="32" viewBox="0 0 32 32" fill="none" xmlns="http://www.w3.org/2000/svg">
<path d="M30.5453 16.1342V11.6367C30.5453 10.1116 29.3623 8.87133 27.8677 8.75106L23.691 1.45572C23.3039 0.781005 22.6789 0.298763 21.931 0.0985167C21.1867 -0.100366 20.4084 0.00408642 19.7422 0.39183L5.42402 8.7276H2.90931C1.30495 8.7276 0.000244141 10.0322 0.000244141 11.6367V29.0909C0.000244141 30.6953 1.30488 32 2.90931 32H27.6362C29.2406 32 30.5453 30.6954 30.5453 29.0909V24.5934C31.39 24.2922 31.9998 23.4925 31.9998 22.5456V18.182C31.9998 17.2351 31.39 16.4354 30.5453 16.1342ZM26.1776 8.7276H19.8388L24.593 5.95974L26.1776 8.7276ZM23.8703 4.69751L16.948 8.7276H14.0767L23.1524 3.4436L23.8703 4.69751ZM20.4744 1.64888C20.8032 1.4564 21.1874 1.40527 21.5546 1.50331C21.9261 1.60272 22.2357 1.84278 22.4282 2.17871L22.4297 2.18137L11.186 8.7276H8.31488L20.4744 1.64888ZM29.0907 29.0909C29.0907 29.8927 28.438 30.5454 27.6362 30.5454H2.90931C2.10751 30.5454 1.45481 29.8927 1.45481 29.0909V11.6367C1.45481 10.8349 2.10751 10.1822 2.90931 10.1822H27.6362C28.438 10.1822 29.0907 10.8349 29.0907 11.6367V16.0002H24.7271C22.3209 16.0002 20.3636 17.9576 20.3636 20.3638C20.3636 22.77 22.3209 24.7274 24.7271 24.7274H29.0907V29.0909ZM30.5453 22.5456C30.5453 22.9468 30.2193 23.2729 29.818 23.2729H24.7271C23.1228 23.2729 21.8181 21.9682 21.8181 20.3638C21.8181 18.7594 23.1227 17.4547 24.7271 17.4547H29.818C30.2192 17.4547 30.5453 17.7807 30.5453 18.182V22.5456Z" fill="#94A3B3"/>
<path d="M24.7273 18.9092C23.9255 18.9092 23.2728 19.5619 23.2728 20.3637C23.2728 21.1655 23.9255 21.8182 24.7273 21.8182C25.5291 21.8182 26.1818 21.1655 26.1818 20.3637C26.1818 19.5619 25.5291 18.9092 24.7273 18.9092Z" fill="#94A3B3"/>
</svg>
